<?xml version="1.0" standalone="no"?>
<!DOCTYPE svg PUBLIC "-//W3C//DTD SVG 20010904//EN"
 "http://www.w3.org/TR/2001/REC-SVG-20010904/DTD/svg10.dtd">
<svg version="1.0" xmlns="http://www.w3.org/2000/svg"
 width="100.000000pt" height="100.000000pt" viewBox="0 0 100.000000 100.000000"
 preserveAspectRatio="xMidYMid meet">
<metadata>
Created by potrace 1.11, written by Peter Selinger 2001-2013
</metadata>
<g transform="translate(0.000000,100.000000) scale(0.100000,-0.100000)"
fill="#000000" stroke="none">
<path d="M351 989 c-106 -20 -191 -60 -241 -114 l-25 -27 -3 -316 c-2 -174 -1
-326 2 -338 9 -33 64 -84 120 -109 91 -42 169 -55 316 -51 151 3 229 22 312
75 81 52 81 52 81 407 0 353 1 346 -82 401 -54 37 -116 59 -207 73 -73 12
-204 11 -273 -1z m295 -44 c286 -60 302 -211 29 -280 -73 -19 -237 -25 -310
-12 -136 25 -245 90 -245 149 0 109 296 190 526 143z m-406 -300 c118 -42 296
-52 425 -25 67 14 160 52 187 77 17 15 18 13 18 -54 0 -54 -4 -74 -19 -90
-131 -140 -589 -141 -706 -1 -21 25 -25 40 -25 94 l0 64 38 -24 c20 -14 57
-32 82 -41z m4 -201 c65 -23 207 -41 294 -38 102 5 224 37 285 74 28 17 47 24
48 17 5 -68 -5 -124 -24 -145 -105 -114 -454 -140 -637 -47 -72 36 -90 65 -90
141 l0 64 41 -26 c23 -14 60 -32 83 -40z m76 -219 c83 -18 247 -21 325 -6 73
14 145 40 185 67 l35 24 5 -32 c12 -67 -15 -115 -83 -150 -149 -76 -422 -77
-574 -2 -72 35 -93 64 -93 130 l0 54 63 -35 c34 -19 96 -42 137 -50z"/>
</g>
</svg>
